<svg width="22" height="25" viewBox="0 0 22 25" fill="none" xmlns="http://www.w3.org/2000/svg">
<path d="M20.3327 4.87661H4.46531L4.22945 1.46368C4.19087 0.905559 3.83075 0.477905 3.39934 0.477905H1.706C1.2457 0.477905 0.872559 0.962573 0.872559 1.56044C0.872559 2.15831 1.2457 2.64298 1.706 2.64298H2.63738C3.14638 10.0085 1.83089 -9.02857 3.59596 16.5143C3.66398 17.5141 4.07987 18.599 4.79631 19.3361C3.5046 21.4787 4.68482 24.6374 6.786 24.6374C8.52995 24.6374 9.75999 22.3782 9.16194 20.2385H13.7235C13.1262 22.3755 14.3535 24.6374 16.0994 24.6374C17.4927 24.6374 18.6262 23.1651 18.6262 21.3554C18.6262 19.5457 17.4927 18.0734 16.0994 18.0734H6.79164C6.15854 18.0734 5.60685 17.5773 5.36872 16.8545L18.6882 15.8377C19.0518 15.81 19.3594 15.4786 19.4478 15.0196L21.1413 6.22169C21.2726 5.53949 20.875 4.87661 20.3327 4.87661ZM6.786 22.4723C6.31189 22.4723 5.92613 21.9713 5.92613 21.3554C5.92613 20.7395 6.31189 20.2385 6.786 20.2385C7.26015 20.2385 7.64591 20.7395 7.64591 21.3554C7.64591 21.9713 7.26015 22.4723 6.786 22.4723ZM16.0994 22.4723C15.6252 22.4723 15.2394 21.9713 15.2394 21.3554C15.2394 20.7395 15.6252 20.2385 16.0994 20.2385C16.5735 20.2385 16.9593 20.7395 16.9593 21.3554C16.9593 21.9713 16.5735 22.4723 16.0994 22.4723ZM17.9792 13.7231L5.14437 14.7027L4.61493 7.04164H19.2653L17.9792 13.7231Z" fill="white"/>
</svg>
