<svg width="23" height="16" viewBox="0 0 23 16" fill="none" xmlns="http://www.w3.org/2000/svg">
<path d="M1.92586 0.0833435H9.84253C10.2625 0.0833435 10.6652 0.250159 10.9621 0.547091C11.259 0.844024 11.4259 1.24675 11.4259 1.66668C11.4259 2.0866 11.259 2.48933 10.9621 2.78626C10.6652 3.0832 10.2625 3.25001 9.84253 3.25001H1.92586C1.50594 3.25001 1.10321 3.0832 0.806277 2.78626C0.509344 2.48933 0.342529 2.0866 0.342529 1.66668C0.342529 1.24675 0.509344 0.844024 0.806277 0.547091C1.10321 0.250159 1.50594 0.0833435 1.92586 0.0833435ZM13.0092 12.75H20.9259C21.3458 12.75 21.7485 12.9168 22.0454 13.2138C22.3424 13.5107 22.5092 13.9134 22.5092 14.3333C22.5092 14.7533 22.3424 15.156 22.0454 15.4529C21.7485 15.7499 21.3458 15.9167 20.9259 15.9167H13.0092C12.5893 15.9167 12.1865 15.7499 11.8896 15.4529C11.5927 15.156 11.4259 14.7533 11.4259 14.3333C11.4259 13.9134 11.5927 13.5107 11.8896 13.2138C12.1865 12.9168 12.5893 12.75 13.0092 12.75ZM1.92586 6.41668H20.9259C21.3458 6.41668 21.7485 6.58349 22.0454 6.88042C22.3424 7.17736 22.5092 7.58008 22.5092 8.00001C22.5092 8.41994 22.3424 8.82266 22.0454 9.1196C21.7485 9.41653 21.3458 9.58334 20.9259 9.58334H1.92586C1.50594 9.58334 1.10321 9.41653 0.806277 9.1196C0.509344 8.82266 0.342529 8.41994 0.342529 8.00001C0.342529 7.58008 0.509344 7.17736 0.806277 6.88042C1.10321 6.58349 1.50594 6.41668 1.92586 6.41668Z" fill="black"/>
</svg>
