<svg width="56" height="56" viewBox="0 0 56 56" fill="none" xmlns="http://www.w3.org/2000/svg">
<path d="M34.1096 53.9081C33.0555 54.9623 31.7492 55.4894 30.1909 55.4894C28.6326 55.4894 27.3263 54.9623 26.2721 53.9081L2.07214 29.7081C1.56797 29.2039 1.16647 28.6081 0.867636 27.9206C0.568802 27.2331 0.420303 26.4998 0.422136 25.7206V6.05811C0.422136 4.54561 0.961136 3.25127 2.03914 2.17511C3.11714 1.09894 4.41147 0.559939 5.92214 0.558105H25.5846C26.3638 0.558105 27.0971 0.707522 27.7846 1.00636C28.4721 1.30519 29.068 1.70577 29.5721 2.20811L53.7721 26.4769C54.8263 27.531 55.3534 28.8263 55.3534 30.3626C55.3534 31.8989 54.8263 33.1933 53.7721 34.2456L34.1096 53.9081ZM30.1909 50.0581L49.8534 30.3956L25.5846 6.05811H5.92214V25.7206L30.1909 50.0581ZM12.7971 17.0581C13.943 17.0581 14.9174 16.6575 15.7204 15.8564C16.5234 15.0552 16.924 14.0808 16.9221 12.9331C16.9221 11.7873 16.5216 10.8138 15.7204 10.0126C14.9192 9.21144 13.9448 8.80994 12.7971 8.80811C11.6513 8.80811 10.6778 9.20961 9.87664 10.0126C9.07547 10.8156 8.67397 11.7891 8.67214 12.9331C8.67214 14.0789 9.07364 15.0534 9.87664 15.8564C10.6796 16.6594 11.6531 17.0599 12.7971 17.0581Z" fill="white"/>
</svg>
