<svg width="34" height="34" viewBox="0 0 34 34" fill="none" xmlns="http://www.w3.org/2000/svg">
<g clip-path="url(#clip0_1_133)">
<path d="M27.8796 8.79347C28.4736 7.15034 26.8814 5.55809 25.2383 6.15347L5.15639 13.4162C3.50777 14.013 3.30839 16.2625 4.82502 17.1411L11.2353 20.8522L16.9594 15.1281C17.2187 14.8776 17.566 14.739 17.9266 14.7422C18.2871 14.7453 18.632 14.8899 18.8869 15.1448C19.1418 15.3998 19.2864 15.7446 19.2896 16.1052C19.2927 16.4657 19.1541 16.813 18.9036 17.0723L13.1795 22.7965L16.892 29.2067C17.7693 30.7233 20.0188 30.5226 20.6155 28.8753L27.8796 8.79347Z" fill="white"/>
</g>
<defs>
<clipPath id="clip0_1_133">
<rect width="33" height="33" fill="white" transform="translate(0.0565186 0.97522)"/>
</clipPath>
</defs>
</svg>
